# xmcd
#
# Track frame offsets:
#	150
#	14405
#	27114
#	40426
#	50266
#	64825
#	80422
#	95361
#	107661
#	119273
#	134060
#	148677
#	161941
#	176053
#	189986
#	202591
#
# Disc length: 2889 seconds
#
# Revision: 2
# Processed by: cddbd v1.5.2PL0 Copyright (c) Steve Scherf et al.
# Submitted via: audiograbber 1.83.01
#
DISCID=dc0b4710
DTITLE=Perry Como - Perry Como - Temptation
DYEAR=1999
DGENRE=Easy Listening
TTITLE0=Till The End Of Time
TTITLE1=Because
TTITLE2=Chi-Baba, Chi-Baba (My Bambino Go To Sleep)
TTITLE3=You Won't Be Satisfied (Until You Break My Heart)
TTITLE4=When You Were Sweet Sixteen
TTITLE5=Prisoner Of Love
TTITLE6=Sonata
TTITLE7=Temptation
TTITLE8=They Say It's Wonderful
TTITLE9=If I Loved You
TTITLE10=I Wonder Who's Kissing Her Now
TTITLE11=(Did You Ever Get) That Feeling In The Moonlight
TTITLE12=I'm Always Chasing Rainbows
TTITLE13=Dig You Later (A Hubba-Hubba-Hubba)
TTITLE14=I'm Confessin' That I Love You
TTITLE15=Long Ago And Far Away
EXTD=
EXTT0=
EXTT1=
EXTT2=
EXTT3=
EXTT4=
EXTT5=
EXTT6=
EXTT7=
EXTT8=
EXTT9=
EXTT10=
EXTT11=
EXTT12=
EXTT13=
EXTT14=
EXTT15=
PLAYORDER=
